<?xml version="1.0" encoding="UTF-8"?>
<svg id="Layer_2" data-name="Layer 2" xmlns="http://www.w3.org/2000/svg" viewBox="0 0 223.47 272.76">
  <rect x="114.64" y="178.54" width="10.61" height="10.61" style="stroke-width: 0px;"/>
  <g>
    <path d="m123.57,88.14c-1.3,0-2.36,1.06-2.36,2.36s1.06,2.36,2.36,2.36,2.36-1.06,2.36-2.36-1.06-2.36-2.36-2.36Z" style="stroke-width: 0px;"/>
    <path d="m125.19,81.17l-8.89,3.26-1.63,9.33,7.26,6.08,8.9-3.26,1.62-9.33-7.26-6.08Zm-1.62,14.69c-2.96,0-5.36-2.4-5.36-5.36s2.4-5.36,5.36-5.36,5.36,2.4,5.36,5.36-2.4,5.36-5.36,5.36Z" style="stroke-width: 0px;"/>
  </g>
  <g>
    <path d="m86.16,119.77c0,2.83,2.31,5.14,5.14,5.14s5.14-2.31,5.14-5.14-2.31-5.14-5.14-5.14-5.14,2.31-5.14,5.14Z" style="stroke-width: 0px;"/>
    <path d="m155.32,83.49s3.45-15.98-12.85-34.18c-2.33-2.6-4.89-5.14-8-7.44v9.62h-23.32v-9.59s11.11-8.29,11.11-8.29c.86.59,1.9.94,3.02.94,2.96,0,5.36-2.4,5.36-5.36s-2.4-5.36-5.36-5.36-5.36,2.4-5.36,5.36c0,.75.16,1.46.43,2.1l-9.22,6.87-.03-25.94c2.71-.67,4.72-3.11,4.72-6.01,0-3.42-2.78-6.2-6.2-6.2s-6.2,2.78-6.2,6.2c0,2.89,2,5.32,4.68,6l.05,39.29h-4.67v-19.09c-1.54-.08-3.14-.12-4.81-.14-1.65-.01-3.44.04-5.34.2v29.83l22.86,16.71,10.02-3.67,11.69,9.78-2.62,15.01-14.32,5.24-11.7-9.78,2.4-13.69-18.35-13.41v41.44c4.13,1.28,7.14,5.14,7.14,9.69,0,5.59-4.55,10.14-10.14,10.14s-10.14-4.55-10.14-10.14c0-4.55,3.01-8.4,7.14-9.69V33.27c-8.39,1.6-17.86,5.43-25.81,13.84-7.19,7.59-12.48,17.18-10.97,32.84.33,3.4,5.18,7.33,1.77,13.9,0,0-7.32,12.89-7.08,15.05,0,0-.13,3.93,5.94,4.04,0,0,1.51.2,1.07,3.54l-.07,4.87s.19,1.45,2.85,2.34c0,0,.51.51-.25,1.46,0,0-1.39,1.56,1.02,4.93.89,1.23,2.33,2.78,1.45,5.94,0,0-1.14,6.12,1.26,7.58,0,0,2.73,3.23,13.72,1.89,3.83-.47,10.93-2.34,15.16,2.97,0,0,4.21,13.72,2.04,21.58l-10.03,21.68,24.04-18.06c.08-.46.67-.79,1.64-1.03v-22.04h27.79v21.92c10.21.03,18.42-.79,15.23-5.09h.01c-7.21-9.74-11.55-30.66-11.55-30.66,0,0-5.12-11.56,5.3-26.54,0,0,13.08-17.26,13.46-26.73Zm-30.04-56.67c1.3,0,2.36,1.06,2.36,2.36s-1.06,2.36-2.36,2.36-2.36-1.06-2.36-2.36,1.06-2.36,2.36-2.36Zm-18.86-20.62c0-1.76,1.44-3.2,3.2-3.2s3.2,1.44,3.2,3.2-1.44,3.2-3.2,3.2-3.2-1.44-3.2-3.2Z" style="stroke-width: 0px;"/>
  </g>
  <rect x="115.63" y="42.03" width="8.64" height="8.64" style="stroke-width: 0px;"/>
  <rect x="125.8" y="45.31" width="5.25" height="5.25" style="stroke-width: 0px;"/>
  <rect x="110.34" y="155.03" width="19.23" height="19.23" style="stroke-width: 0px;"/>
  <g style="isolation: isolate;">
    <g style="isolation: isolate;">
      <path d="m28.73,208.34h-10.45v28.43h-7.03v-28.43H.94v-5.7h27.8v5.7Z" style="stroke-width: 0px;"/>
      <path d="m45.38,224.28h-5.6v12.49h-7.03v-34.12h12.68c4.03,0,7.14.9,9.33,2.7s3.28,4.34,3.28,7.62c0,2.33-.5,4.27-1.51,5.82s-2.54,2.79-4.58,3.71l7.38,13.95v.33h-7.55l-6.4-12.49Zm-5.6-5.7h5.67c1.77,0,3.13-.45,4.1-1.35s1.45-2.14,1.45-3.71-.46-2.88-1.37-3.8-2.32-1.38-4.21-1.38h-5.65v10.24Z" style="stroke-width: 0px;"/>
      <path d="m82.64,229.74h-12.33l-2.34,7.03h-7.48l12.7-34.12h6.52l12.77,34.12h-7.48l-2.37-7.03Zm-10.43-5.7h8.53l-4.29-12.77-4.24,12.77Z" style="stroke-width: 0px;"/>
      <path d="m103.15,236.77h-7.03v-34.12h7.03v34.12Z" style="stroke-width: 0px;"/>
      <path d="m137.41,236.77h-7.03l-13.69-22.45v22.45h-7.03v-34.12h7.03l13.71,22.5v-22.5h7.01v34.12Z" style="stroke-width: 0px;"/>
      <path d="m151.03,236.77h-7.03v-34.12h7.03v34.12Z" style="stroke-width: 0px;"/>
      <path d="m185.3,236.77h-7.03l-13.69-22.45v22.45h-7.03v-34.12h7.03l13.71,22.5v-22.5h7.01v34.12Z" style="stroke-width: 0px;"/>
      <path d="m218.44,232.46c-1.27,1.52-3.05,2.69-5.37,3.53s-4.88,1.25-7.69,1.25c-2.95,0-5.54-.64-7.77-1.93s-3.95-3.16-5.16-5.61-1.83-5.34-1.86-8.65v-2.32c0-3.41.57-6.36,1.72-8.85s2.8-4.4,4.97-5.72,4.7-1.98,7.61-1.98c4.05,0,7.21.96,9.49,2.89s3.63,4.74,4.05,8.43h-6.84c-.31-1.95-1-3.38-2.07-4.29s-2.54-1.36-4.42-1.36c-2.39,0-4.21.9-5.46,2.7s-1.88,4.47-1.9,8.02v2.18c0,3.58.68,6.28,2.04,8.11s3.35,2.74,5.98,2.74,4.52-.56,5.65-1.69v-5.88h-6.4v-5.18h13.43v13.62Z" style="stroke-width: 0px;"/>
    </g>
  </g>
  <g style="isolation: isolate;">
    <g style="isolation: isolate;">
      <path d="m181.65,264.41h-3.79v-9.72h-9.8v9.72h-3.81v-21.92h3.81v9.12h9.8v-9.12h3.79v21.92Z" style="stroke-width: 0px;"/>
      <path d="m202.18,242.49v14.65c0,2.33-.75,4.17-2.24,5.53-1.49,1.36-3.48,2.04-5.95,2.04s-4.5-.67-5.98-2.01c-1.47-1.34-2.21-3.2-2.21-5.58v-14.63h3.79v14.66c0,1.47.37,2.58,1.11,3.36.74.77,1.84,1.16,3.28,1.16,2.93,0,4.4-1.54,4.4-4.64v-14.54h3.79Z" style="stroke-width: 0px;"/>
      <path d="m206.25,264.41v-21.92h7.51c2.48,0,4.37.5,5.66,1.49,1.29.99,1.94,2.47,1.94,4.44,0,1-.27,1.91-.81,2.71s-1.33,1.42-2.38,1.87c1.18.32,2.1.93,2.75,1.81.65.89.97,1.95.97,3.2,0,2.06-.66,3.64-1.98,4.74-1.32,1.1-3.21,1.66-5.67,1.66h-7.99Zm3.81-12.69h3.73c1.18,0,2.11-.27,2.78-.81.67-.54,1-1.3,1-2.28,0-1.08-.31-1.87-.93-2.35-.62-.48-1.58-.72-2.88-.72h-3.7v6.16Zm0,2.8v6.85h4.23c1.19,0,2.13-.3,2.8-.89.67-.59,1.01-1.42,1.01-2.47,0-2.28-1.16-3.44-3.49-3.49h-4.55Z" style="stroke-width: 0px;"/>
    </g>
  </g>
</svg>