<?xml version="1.0" encoding="UTF-8" standalone="no"?>
<svg
   id="Layer_2"
   data-name="Layer 2"
   viewBox="0 0 512 512"
   width="512"
   height="512"
   xmlns="http://www.w3.org/2000/svg">

  <style type="text/css">
    /* Light mode */
    @media (prefers-color-scheme: light) {
      .logo-fill {
        fill: #000;
      }
    }

    /* Dark mode */
    @media (prefers-color-scheme: dark) {
      .logo-fill {
        fill: #FFF;
      }
    }
  </style>

  <rect x="273.03922" y="462.78256" width="27.023947" height="27.023947" style="stroke-width:0px" id="rect1" class="logo-fill"/>
  <g id="g2" transform="matrix(2.5470261,0,0,2.5470261,-18.951866,8.0364857)">
    <path d="m 123.57,88.14 c -1.3,0 -2.36,1.06 -2.36,2.36 0,1.3 1.06,2.36 2.36,2.36 1.3,0 2.36,-1.06 2.36,-2.36 0,-1.3 -1.06,-2.36 -2.36,-2.36 z"
       style="stroke-width:0px"
       id="path1"
       class="logo-fill" />
    <path d="m 125.19,81.17 -8.89,3.26 -1.63,9.33 7.26,6.08 8.9,-3.26 1.62,-9.33 z m -1.62,14.69 c -2.96,0 -5.36,-2.4 -5.36,-5.36 0,-2.96 2.4,-5.36 5.36,-5.36 2.96,0 5.36,2.4 5.36,5.36 0,2.96 -2.4,5.36 -5.36,5.36 z"
       style="stroke-width:0px"
       id="path2"
       class="logo-fill" />
  </g>
  <g id="g4" transform="matrix(2.5470261,0,0,2.5470261,-18.951866,8.0364857)">
    <path
       d="m 86.16,119.77 c 0,2.83 2.31,5.14 5.14,5.14 2.83,0 5.14,-2.31 5.14,-5.14 0,-2.83 -2.31,-5.14 -5.14,-5.14 -2.83,0 -5.14,2.31 -5.14,5.14 z"
       style="stroke-width:0px"
       id="path3"
       class="logo-fill" />
    <path
       d="m 155.32,83.49 c 0,0 3.45,-15.98 -12.85,-34.18 -2.33,-2.6 -4.89,-5.14 -8,-7.44 v 9.62 H 111.15 V 41.9 c 0,0 11.11,-8.29 11.11,-8.29 0.86,0.59 1.9,0.94 3.02,0.94 2.96,0 5.36,-2.4 5.36,-5.36 0,-2.96 -2.4,-5.36 -5.36,-5.36 -2.96,0 -5.36,2.4 -5.36,5.36 0,0.75 0.16,1.46 0.43,2.1 l -9.22,6.87 -0.03,-25.94 c 2.71,-0.67 4.72,-3.11 4.72,-6.01 0,-3.42 -2.78,-6.2 -6.2,-6.2 -3.42,0 -6.2,2.78 -6.2,6.2 0,2.89 2,5.32 4.68,6 l 0.05,39.29 h -4.67 V 32.41 c -1.54,-0.08 -3.14,-0.12 -4.81,-0.14 -1.65,-0.01 -3.44,0.04 -5.34,0.2 V 62.3 l 22.86,16.71 10.02,-3.67 11.69,9.78 -2.62,15.01 -14.32,5.24 -11.7,-9.78 2.4,-13.69 -18.35,-13.41 v 41.44 c 4.13,1.28 7.14,5.14 7.14,9.69 0,5.59 -4.55,10.14 -10.14,10.14 -5.59,0 -10.14,-4.55 -10.14,-10.14 0,-4.55 3.01,-8.4 7.14,-9.69 V 33.27 C 78.92,34.87 69.45,38.7 61.5,47.11 54.31,54.7 49.02,64.29 50.53,79.95 c 0.33,3.4 5.18,7.33 1.77,13.9 0,0 -7.32,12.89 -7.08,15.05 0,0 -0.13,3.93 5.94,4.04 0,0 1.51,0.2 1.07,3.54 l -0.07,4.87 c 0,0 0.19,1.45 2.85,2.34 0,0 0.51,0.51 -0.25,1.46 0,0 -1.39,1.56 1.02,4.93 0.89,1.23 2.33,2.78 1.45,5.94 0,0 -1.14,6.12 1.26,7.58 0,0 2.73,3.23 13.72,1.89 3.83,-0.47 10.93,-2.34 15.16,2.97 0,0 4.21,13.72 2.04,21.58 l -10.03,21.68 24.04,-18.06 c 0.08,-0.46 0.67,-0.79 1.64,-1.03 v -22.04 h 27.79 v 21.92 c 10.21,0.03 18.42,-0.79 15.23,-5.09 h 0.01 c -7.21,-9.74 -11.55,-30.66 -11.55,-30.66 0,0 -5.12,-11.56 5.3,-26.54 0,0 13.08,-17.26 13.46,-26.73 z M 125.28,26.82 c 1.3,0 2.36,1.06 2.36,2.36 0,1.3 -1.06,2.36 -2.36,2.36 -1.3,0 -2.36,-1.06 -2.36,-2.36 0,-1.3 1.06,-2.36 2.36,-2.36 z M 106.42,6.2 c 0,-1.76 1.44,-3.2 3.2,-3.2 1.76,0 3.2,1.44 3.2,3.2 0,1.76 -1.44,3.2 -3.2,3.2 -1.76,0 -3.2,-1.44 -3.2,-3.2 z"
       style="stroke-width:0px"
       id="path4"
       class="logo-fill" />
  </g>
  <rect x="275.56076" y="115.088" width="22.00630" height="22.006306" style="stroke-width:0px" id="rect4" class="logo-fill"/>
  <rect x="301.46402" y="123.44225" width="13.371887" height="13.371887" style="stroke-width:0px" id="rect5" class="logo-fill"/>
  <rect x="262.08698" y="402.90198" width="48.979313" height="48.979313" style="stroke-width:0px" id="rect6" class="logo-fill"/>
</svg>